<mxfile host="Electron" agent="Mozilla/5.0 (Windows NT 10.0; Win64; x64) AppleWebKit/537.36 (KHTML, like Gecko) draw.io/28.1.2 Chrome/138.0.7204.243 Electron/37.4.0 Safari/537.36" version="28.1.2">
  <diagram id="i5aK-gHj0_A_T1_XzZ1c" name="Flowchart Toko Furnitur">
    <mxGraphModel dx="3488" dy="2116" grid="1" gridSize="10" guides="1" tooltips="1" connect="1" arrows="1" fold="1" page="1" pageScale="1" pageWidth="827" pageHeight="1169" math="0" shadow="0">
      <root>
        <mxCell id="0" />
        <mxCell id="1" parent="0" />
        <mxCell id="J_yqN0D3UHSebhm-e75W-1" value="Mulai Program" style="rounded=1;whiteSpace=wrap;arcSize=50;strokeWidth=2;" vertex="1" parent="1">
          <mxGeometry x="1438" y="20" width="126" height="39" as="geometry" />
        </mxCell>
        <mxCell id="J_yqN0D3UHSebhm-e75W-2" value="Inisialisasi nama, NIM, percobaan, dan status login" style="whiteSpace=wrap;strokeWidth=2;" vertex="1" parent="1">
          <mxGeometry x="1371" y="109" width="260" height="78" as="geometry" />
        </mxCell>
        <mxCell id="J_yqN0D3UHSebhm-e75W-3" value="Tampilkan pesan Selamat Datang" style="whiteSpace=wrap;strokeWidth=2;" vertex="1" parent="1">
          <mxGeometry x="1371" y="237" width="260" height="78" as="geometry" />
        </mxCell>
        <mxCell id="J_yqN0D3UHSebhm-e75W-4" value="Apakah percobaan kurang dari 3" style="rhombus;strokeWidth=2;whiteSpace=wrap;" vertex="1" parent="1">
          <mxGeometry x="1362" y="365" width="278" height="278" as="geometry" />
        </mxCell>
        <mxCell id="J_yqN0D3UHSebhm-e75W-5" value="Input username dan password" style="whiteSpace=wrap;strokeWidth=2;" vertex="1" parent="1">
          <mxGeometry x="1273" y="716" width="260" height="78" as="geometry" />
        </mxCell>
        <mxCell id="J_yqN0D3UHSebhm-e75W-6" value="Apakah username dan password benar" style="rhombus;strokeWidth=2;whiteSpace=wrap;" vertex="1" parent="1">
          <mxGeometry x="1264" y="844" width="278" height="278" as="geometry" />
        </mxCell>
        <mxCell id="J_yqN0D3UHSebhm-e75W-7" value="Login berhasil, lanjut ke menu pembelian" style="whiteSpace=wrap;strokeWidth=2;" vertex="1" parent="1">
          <mxGeometry x="1711" y="1195" width="260" height="78" as="geometry" />
        </mxCell>
        <mxCell id="J_yqN0D3UHSebhm-e75W-8" value="Tambah percobaan +1" style="whiteSpace=wrap;strokeWidth=2;" vertex="1" parent="1">
          <mxGeometry x="1295" y="1207" width="216" height="54" as="geometry" />
        </mxCell>
        <mxCell id="J_yqN0D3UHSebhm-e75W-9" value="Apakah sisa percobaan sama dengan 0" style="rhombus;strokeWidth=2;whiteSpace=wrap;" vertex="1" parent="1">
          <mxGeometry x="1362" y="1323" width="278" height="278" as="geometry" />
        </mxCell>
        <mxCell id="J_yqN0D3UHSebhm-e75W-10" value="Login gagal 3 kali, keluar program" style="whiteSpace=wrap;strokeWidth=2;" vertex="1" parent="1">
          <mxGeometry x="1371" y="1674" width="260" height="78" as="geometry" />
        </mxCell>
        <mxCell id="J_yqN0D3UHSebhm-e75W-11" value="Inisialisasi total dan jumlah barang" style="whiteSpace=wrap;strokeWidth=2;" vertex="1" parent="1">
          <mxGeometry x="1711" y="1423" width="260" height="78" as="geometry" />
        </mxCell>
        <mxCell id="J_yqN0D3UHSebhm-e75W-12" value="Mulai menu pembelian" style="whiteSpace=wrap;strokeWidth=2;" vertex="1" parent="1">
          <mxGeometry x="1730" y="1686" width="222" height="54" as="geometry" />
        </mxCell>
        <mxCell id="J_yqN0D3UHSebhm-e75W-13" value="Tampilkan daftar furnitur 1 sampai 4" style="whiteSpace=wrap;strokeWidth=2;" vertex="1" parent="1">
          <mxGeometry x="1711" y="1802" width="260" height="78" as="geometry" />
        </mxCell>
        <mxCell id="J_yqN0D3UHSebhm-e75W-14" value="Input pilihan furnitur" style="whiteSpace=wrap;strokeWidth=2;" vertex="1" parent="1">
          <mxGeometry x="961" y="1930" width="211" height="54" as="geometry" />
        </mxCell>
        <mxCell id="J_yqN0D3UHSebhm-e75W-15" value="Apakah total pembelian sama dengan 0" style="rhombus;strokeWidth=2;whiteSpace=wrap;" vertex="1" parent="1">
          <mxGeometry x="160" y="2057" width="278" height="278" as="geometry" />
        </mxCell>
        <mxCell id="J_yqN0D3UHSebhm-e75W-16" value="Tampilkan pesan belum membeli apa pun dan keluar" style="whiteSpace=wrap;strokeWidth=2;" vertex="1" parent="1">
          <mxGeometry x="20" y="2408" width="260" height="102" as="geometry" />
        </mxCell>
        <mxCell id="J_yqN0D3UHSebhm-e75W-17" value="Hitung diskon dan bonus" style="whiteSpace=wrap;strokeWidth=2;" vertex="1" parent="1">
          <mxGeometry x="330" y="2432" width="234" height="54" as="geometry" />
        </mxCell>
        <mxCell id="J_yqN0D3UHSebhm-e75W-18" value="Tampilkan struk pembelian" style="whiteSpace=wrap;strokeWidth=2;" vertex="1" parent="1">
          <mxGeometry x="321" y="2656" width="253" height="54" as="geometry" />
        </mxCell>
        <mxCell id="J_yqN0D3UHSebhm-e75W-19" value="Selesai" style="rounded=1;whiteSpace=wrap;arcSize=50;strokeWidth=2;" vertex="1" parent="1">
          <mxGeometry x="410" y="2899" width="74" height="39" as="geometry" />
        </mxCell>
        <mxCell id="J_yqN0D3UHSebhm-e75W-20" value="Set jenis Sofa, harga 500000" style="whiteSpace=wrap;strokeWidth=2;" vertex="1" parent="1">
          <mxGeometry x="626" y="2157" width="260" height="78" as="geometry" />
        </mxCell>
        <mxCell id="J_yqN0D3UHSebhm-e75W-21" value="Set jenis Meja Belajar, harga 250000" style="whiteSpace=wrap;strokeWidth=2;" vertex="1" parent="1">
          <mxGeometry x="936" y="2157" width="260" height="78" as="geometry" />
        </mxCell>
        <mxCell id="J_yqN0D3UHSebhm-e75W-22" value="Set jenis Rak Lemari, harga 150000" style="whiteSpace=wrap;strokeWidth=2;" vertex="1" parent="1">
          <mxGeometry x="1246" y="2157" width="260" height="78" as="geometry" />
        </mxCell>
        <mxCell id="J_yqN0D3UHSebhm-e75W-23" value="Tampilkan pesan pilihan tidak valid" style="whiteSpace=wrap;strokeWidth=2;" vertex="1" parent="1">
          <mxGeometry x="1556" y="2157" width="260" height="78" as="geometry" />
        </mxCell>
        <mxCell id="J_yqN0D3UHSebhm-e75W-24" value="Input jumlah unit" style="whiteSpace=wrap;strokeWidth=2;" vertex="1" parent="1">
          <mxGeometry x="989" y="2432" width="185" height="54" as="geometry" />
        </mxCell>
        <mxCell id="J_yqN0D3UHSebhm-e75W-25" value="Apakah jumlah valid angka" style="rhombus;strokeWidth=2;whiteSpace=wrap;" vertex="1" parent="1">
          <mxGeometry x="959" y="2560" width="246" height="246" as="geometry" />
        </mxCell>
        <mxCell id="J_yqN0D3UHSebhm-e75W-26" value="Tampilkan pesan error input jumlah" style="whiteSpace=wrap;strokeWidth=2;" vertex="1" parent="1">
          <mxGeometry x="1381" y="2879" width="260" height="78" as="geometry" />
        </mxCell>
        <mxCell id="J_yqN0D3UHSebhm-e75W-27" value="Hitung total = jumlah x harga" style="whiteSpace=wrap;strokeWidth=2;" vertex="1" parent="1">
          <mxGeometry x="1892" y="2879" width="260" height="78" as="geometry" />
        </mxCell>
        <mxCell id="J_yqN0D3UHSebhm-e75W-28" value="Tambah ke total pembelian dan update data barang" style="whiteSpace=wrap;strokeWidth=2;" vertex="1" parent="1">
          <mxGeometry x="1892" y="3007" width="260" height="102" as="geometry" />
        </mxCell>
        <mxCell id="J_yqN0D3UHSebhm-e75W-29" value="Tampilkan pesan berhasil menambahkan ke keranjang" style="whiteSpace=wrap;strokeWidth=2;" vertex="1" parent="1">
          <mxGeometry x="2026" y="3159" width="260" height="102" as="geometry" />
        </mxCell>
        <mxCell id="J_yqN0D3UHSebhm-e75W-30" value="" style="curved=1;startArrow=none;endArrow=block;exitX=0.5;exitY=1;entryX=0.5;entryY=0;rounded=0;" edge="1" parent="1" source="J_yqN0D3UHSebhm-e75W-1" target="J_yqN0D3UHSebhm-e75W-2">
          <mxGeometry relative="1" as="geometry">
            <Array as="points" />
          </mxGeometry>
        </mxCell>
        <mxCell id="J_yqN0D3UHSebhm-e75W-31" value="" style="curved=1;startArrow=none;endArrow=block;exitX=0.5;exitY=1;entryX=0.5;entryY=0;rounded=0;" edge="1" parent="1" source="J_yqN0D3UHSebhm-e75W-2" target="J_yqN0D3UHSebhm-e75W-3">
          <mxGeometry relative="1" as="geometry">
            <Array as="points" />
          </mxGeometry>
        </mxCell>
        <mxCell id="J_yqN0D3UHSebhm-e75W-32" value="" style="curved=1;startArrow=none;endArrow=block;exitX=0.5;exitY=1;entryX=0.5;entryY=0;rounded=0;" edge="1" parent="1" source="J_yqN0D3UHSebhm-e75W-3" target="J_yqN0D3UHSebhm-e75W-4">
          <mxGeometry relative="1" as="geometry">
            <Array as="points" />
          </mxGeometry>
        </mxCell>
        <mxCell id="J_yqN0D3UHSebhm-e75W-33" value="Ya" style="curved=1;startArrow=none;endArrow=block;exitX=0.22;exitY=1;entryX=0.5;entryY=0;rounded=0;" edge="1" parent="1" source="J_yqN0D3UHSebhm-e75W-4" target="J_yqN0D3UHSebhm-e75W-5">
          <mxGeometry relative="1" as="geometry">
            <Array as="points">
              <mxPoint x="1403" y="680" />
            </Array>
          </mxGeometry>
        </mxCell>
        <mxCell id="J_yqN0D3UHSebhm-e75W-34" value="" style="curved=1;startArrow=none;endArrow=block;exitX=0.5;exitY=1;entryX=0.5;entryY=0;rounded=0;" edge="1" parent="1" source="J_yqN0D3UHSebhm-e75W-5" target="J_yqN0D3UHSebhm-e75W-6">
          <mxGeometry relative="1" as="geometry">
            <Array as="points" />
          </mxGeometry>
        </mxCell>
        <mxCell id="J_yqN0D3UHSebhm-e75W-35" value="Ya" style="curved=1;startArrow=none;endArrow=block;exitX=1;exitY=0.7;entryX=0.5;entryY=0;rounded=0;" edge="1" parent="1" source="J_yqN0D3UHSebhm-e75W-6" target="J_yqN0D3UHSebhm-e75W-7">
          <mxGeometry relative="1" as="geometry">
            <Array as="points">
              <mxPoint x="1841" y="1159" />
            </Array>
          </mxGeometry>
        </mxCell>
        <mxCell id="J_yqN0D3UHSebhm-e75W-36" value="Tidak" style="curved=1;startArrow=none;endArrow=block;exitX=0.5;exitY=1;entryX=0.5;entryY=0;rounded=0;" edge="1" parent="1" source="J_yqN0D3UHSebhm-e75W-6" target="J_yqN0D3UHSebhm-e75W-8">
          <mxGeometry relative="1" as="geometry">
            <Array as="points" />
          </mxGeometry>
        </mxCell>
        <mxCell id="J_yqN0D3UHSebhm-e75W-37" value="" style="curved=1;startArrow=none;endArrow=block;exitX=0.5;exitY=1;entryX=0.2;entryY=0;rounded=0;" edge="1" parent="1" source="J_yqN0D3UHSebhm-e75W-8" target="J_yqN0D3UHSebhm-e75W-9">
          <mxGeometry relative="1" as="geometry">
            <Array as="points">
              <mxPoint x="1403" y="1298" />
            </Array>
          </mxGeometry>
        </mxCell>
        <mxCell id="J_yqN0D3UHSebhm-e75W-38" value="Ya" style="curved=1;startArrow=none;endArrow=block;exitX=0.5;exitY=1;entryX=0.5;entryY=0;rounded=0;" edge="1" parent="1" source="J_yqN0D3UHSebhm-e75W-9" target="J_yqN0D3UHSebhm-e75W-10">
          <mxGeometry relative="1" as="geometry">
            <Array as="points" />
          </mxGeometry>
        </mxCell>
        <mxCell id="J_yqN0D3UHSebhm-e75W-39" value="Tidak" style="curved=1;startArrow=none;endArrow=block;exitX=0.8;exitY=0;entryX=0.78;entryY=1;rounded=0;" edge="1" parent="1" source="J_yqN0D3UHSebhm-e75W-9" target="J_yqN0D3UHSebhm-e75W-4">
          <mxGeometry relative="1" as="geometry">
            <Array as="points">
              <mxPoint x="1599" y="1298" />
              <mxPoint x="1599" y="680" />
            </Array>
          </mxGeometry>
        </mxCell>
        <mxCell id="J_yqN0D3UHSebhm-e75W-40" value="" style="curved=1;startArrow=none;endArrow=block;exitX=0.5;exitY=1;entryX=0.5;entryY=0;rounded=0;" edge="1" parent="1" source="J_yqN0D3UHSebhm-e75W-7" target="J_yqN0D3UHSebhm-e75W-11">
          <mxGeometry relative="1" as="geometry">
            <Array as="points" />
          </mxGeometry>
        </mxCell>
        <mxCell id="J_yqN0D3UHSebhm-e75W-41" value="" style="curved=1;startArrow=none;endArrow=block;exitX=0.5;exitY=1;entryX=0.5;entryY=0;rounded=0;" edge="1" parent="1" source="J_yqN0D3UHSebhm-e75W-11" target="J_yqN0D3UHSebhm-e75W-12">
          <mxGeometry relative="1" as="geometry">
            <Array as="points" />
          </mxGeometry>
        </mxCell>
        <mxCell id="J_yqN0D3UHSebhm-e75W-42" value="" style="curved=1;startArrow=none;endArrow=block;exitX=0.5;exitY=1;entryX=0.5;entryY=0;rounded=0;" edge="1" parent="1" source="J_yqN0D3UHSebhm-e75W-12" target="J_yqN0D3UHSebhm-e75W-13">
          <mxGeometry relative="1" as="geometry">
            <Array as="points" />
          </mxGeometry>
        </mxCell>
        <mxCell id="J_yqN0D3UHSebhm-e75W-43" value="" style="curved=1;startArrow=none;endArrow=block;exitX=0;exitY=0.64;entryX=0.5;entryY=0;rounded=0;" edge="1" parent="1" source="J_yqN0D3UHSebhm-e75W-13" target="J_yqN0D3UHSebhm-e75W-14">
          <mxGeometry relative="1" as="geometry">
            <Array as="points">
              <mxPoint x="1066" y="1905" />
            </Array>
          </mxGeometry>
        </mxCell>
        <mxCell id="J_yqN0D3UHSebhm-e75W-44" value="4" style="curved=1;startArrow=none;endArrow=block;exitX=0;exitY=0.66;entryX=0.5;entryY=0;rounded=0;" edge="1" parent="1" source="J_yqN0D3UHSebhm-e75W-14" target="J_yqN0D3UHSebhm-e75W-15">
          <mxGeometry relative="1" as="geometry">
            <Array as="points">
              <mxPoint x="299" y="2021" />
            </Array>
          </mxGeometry>
        </mxCell>
        <mxCell id="J_yqN0D3UHSebhm-e75W-45" value="Ya" style="curved=1;startArrow=none;endArrow=block;exitX=0.08;exitY=1;entryX=0.5;entryY=0;rounded=0;" edge="1" parent="1" source="J_yqN0D3UHSebhm-e75W-15" target="J_yqN0D3UHSebhm-e75W-16">
          <mxGeometry relative="1" as="geometry">
            <Array as="points">
              <mxPoint x="150" y="2372" />
            </Array>
          </mxGeometry>
        </mxCell>
        <mxCell id="J_yqN0D3UHSebhm-e75W-46" value="Tidak" style="curved=1;startArrow=none;endArrow=block;exitX=0.92;exitY=1;entryX=0.5;entryY=0;rounded=0;" edge="1" parent="1" source="J_yqN0D3UHSebhm-e75W-15" target="J_yqN0D3UHSebhm-e75W-17">
          <mxGeometry relative="1" as="geometry">
            <Array as="points">
              <mxPoint x="447" y="2372" />
            </Array>
          </mxGeometry>
        </mxCell>
        <mxCell id="J_yqN0D3UHSebhm-e75W-47" value="" style="curved=1;startArrow=none;endArrow=block;exitX=0.5;exitY=1;entryX=0.5;entryY=0;rounded=0;" edge="1" parent="1" source="J_yqN0D3UHSebhm-e75W-17" target="J_yqN0D3UHSebhm-e75W-18">
          <mxGeometry relative="1" as="geometry">
            <Array as="points" />
          </mxGeometry>
        </mxCell>
        <mxCell id="J_yqN0D3UHSebhm-e75W-48" value="" style="curved=1;startArrow=none;endArrow=block;exitX=0.5;exitY=1;entryX=0.5;entryY=-0.01;rounded=0;" edge="1" parent="1" source="J_yqN0D3UHSebhm-e75W-18" target="J_yqN0D3UHSebhm-e75W-19">
          <mxGeometry relative="1" as="geometry">
            <Array as="points" />
          </mxGeometry>
        </mxCell>
        <mxCell id="J_yqN0D3UHSebhm-e75W-49" value="1" style="curved=1;startArrow=none;endArrow=block;exitX=0;exitY=0.9;entryX=0.5;entryY=0;rounded=0;" edge="1" parent="1" source="J_yqN0D3UHSebhm-e75W-14" target="J_yqN0D3UHSebhm-e75W-20">
          <mxGeometry relative="1" as="geometry">
            <Array as="points">
              <mxPoint x="756" y="2021" />
            </Array>
          </mxGeometry>
        </mxCell>
        <mxCell id="J_yqN0D3UHSebhm-e75W-50" value="2" style="curved=1;startArrow=none;endArrow=block;exitX=0.5;exitY=1;entryX=0.5;entryY=0;rounded=0;" edge="1" parent="1" source="J_yqN0D3UHSebhm-e75W-14" target="J_yqN0D3UHSebhm-e75W-21">
          <mxGeometry relative="1" as="geometry">
            <Array as="points" />
          </mxGeometry>
        </mxCell>
        <mxCell id="J_yqN0D3UHSebhm-e75W-51" value="3" style="curved=1;startArrow=none;endArrow=block;exitX=1;exitY=0.9;entryX=0.5;entryY=0;rounded=0;" edge="1" parent="1" source="J_yqN0D3UHSebhm-e75W-14" target="J_yqN0D3UHSebhm-e75W-22">
          <mxGeometry relative="1" as="geometry">
            <Array as="points">
              <mxPoint x="1376" y="2021" />
            </Array>
          </mxGeometry>
        </mxCell>
        <mxCell id="J_yqN0D3UHSebhm-e75W-52" value="Lain" style="curved=1;startArrow=none;endArrow=block;exitX=1;exitY=0.75;entryX=0.39;entryY=0;rounded=0;" edge="1" parent="1" source="J_yqN0D3UHSebhm-e75W-14" target="J_yqN0D3UHSebhm-e75W-23">
          <mxGeometry relative="1" as="geometry">
            <Array as="points">
              <mxPoint x="1553" y="2021" />
            </Array>
          </mxGeometry>
        </mxCell>
        <mxCell id="J_yqN0D3UHSebhm-e75W-53" value="" style="curved=1;startArrow=none;endArrow=block;exitX=0.56;exitY=0;entryX=0.31;entryY=1;rounded=0;" edge="1" parent="1" source="J_yqN0D3UHSebhm-e75W-23" target="J_yqN0D3UHSebhm-e75W-13">
          <mxGeometry relative="1" as="geometry">
            <Array as="points">
              <mxPoint x="1759" y="2021" />
              <mxPoint x="1759" y="1905" />
            </Array>
          </mxGeometry>
        </mxCell>
        <mxCell id="J_yqN0D3UHSebhm-e75W-54" value="" style="curved=1;startArrow=none;endArrow=block;exitX=0.5;exitY=1;entryX=0;entryY=0.04;rounded=0;" edge="1" parent="1" source="J_yqN0D3UHSebhm-e75W-20" target="J_yqN0D3UHSebhm-e75W-24">
          <mxGeometry relative="1" as="geometry">
            <Array as="points">
              <mxPoint x="756" y="2372" />
            </Array>
          </mxGeometry>
        </mxCell>
        <mxCell id="J_yqN0D3UHSebhm-e75W-55" value="" style="curved=1;startArrow=none;endArrow=block;exitX=0.5;exitY=1;entryX=0.48;entryY=0;rounded=0;" edge="1" parent="1" source="J_yqN0D3UHSebhm-e75W-21" target="J_yqN0D3UHSebhm-e75W-24">
          <mxGeometry relative="1" as="geometry">
            <Array as="points">
              <mxPoint x="1066" y="2372" />
            </Array>
          </mxGeometry>
        </mxCell>
        <mxCell id="J_yqN0D3UHSebhm-e75W-56" value="" style="curved=1;startArrow=none;endArrow=block;exitX=0.5;exitY=1;entryX=0.99;entryY=0;rounded=0;" edge="1" parent="1" source="J_yqN0D3UHSebhm-e75W-22" target="J_yqN0D3UHSebhm-e75W-24">
          <mxGeometry relative="1" as="geometry">
            <Array as="points">
              <mxPoint x="1376" y="2372" />
            </Array>
          </mxGeometry>
        </mxCell>
        <mxCell id="J_yqN0D3UHSebhm-e75W-57" value="" style="curved=1;startArrow=none;endArrow=block;exitX=0.5;exitY=1;entryX=0.5;entryY=0;rounded=0;" edge="1" parent="1" source="J_yqN0D3UHSebhm-e75W-24" target="J_yqN0D3UHSebhm-e75W-25">
          <mxGeometry relative="1" as="geometry">
            <Array as="points" />
          </mxGeometry>
        </mxCell>
        <mxCell id="J_yqN0D3UHSebhm-e75W-58" value="Tidak" style="curved=1;startArrow=none;endArrow=block;exitX=0.5;exitY=1;entryX=0;entryY=0.21;rounded=0;" edge="1" parent="1" source="J_yqN0D3UHSebhm-e75W-25" target="J_yqN0D3UHSebhm-e75W-26">
          <mxGeometry relative="1" as="geometry">
            <Array as="points">
              <mxPoint x="1082" y="2843" />
            </Array>
          </mxGeometry>
        </mxCell>
        <mxCell id="J_yqN0D3UHSebhm-e75W-59" value="" style="curved=1;startArrow=none;endArrow=block;exitX=1;exitY=0.13;entryX=0.53;entryY=1;rounded=0;" edge="1" parent="1" source="J_yqN0D3UHSebhm-e75W-26" target="J_yqN0D3UHSebhm-e75W-13">
          <mxGeometry relative="1" as="geometry">
            <Array as="points">
              <mxPoint x="1851" y="2843" />
              <mxPoint x="1851" y="1905" />
            </Array>
          </mxGeometry>
        </mxCell>
        <mxCell id="J_yqN0D3UHSebhm-e75W-60" value="Ya" style="curved=1;startArrow=none;endArrow=block;exitX=1;exitY=0.59;entryX=0.5;entryY=0;rounded=0;" edge="1" parent="1" source="J_yqN0D3UHSebhm-e75W-25" target="J_yqN0D3UHSebhm-e75W-27">
          <mxGeometry relative="1" as="geometry">
            <Array as="points">
              <mxPoint x="2022" y="2843" />
            </Array>
          </mxGeometry>
        </mxCell>
        <mxCell id="J_yqN0D3UHSebhm-e75W-61" value="" style="curved=1;startArrow=none;endArrow=block;exitX=0.5;exitY=1;entryX=0.5;entryY=0;rounded=0;" edge="1" parent="1" source="J_yqN0D3UHSebhm-e75W-27" target="J_yqN0D3UHSebhm-e75W-28">
          <mxGeometry relative="1" as="geometry">
            <Array as="points" />
          </mxGeometry>
        </mxCell>
        <mxCell id="J_yqN0D3UHSebhm-e75W-62" value="" style="curved=1;startArrow=none;endArrow=block;exitX=0.5;exitY=1;entryX=0.15;entryY=0;rounded=0;" edge="1" parent="1" source="J_yqN0D3UHSebhm-e75W-28" target="J_yqN0D3UHSebhm-e75W-29">
          <mxGeometry relative="1" as="geometry">
            <Array as="points">
              <mxPoint x="2022" y="3134" />
            </Array>
          </mxGeometry>
        </mxCell>
        <mxCell id="J_yqN0D3UHSebhm-e75W-63" value="" style="curved=1;startArrow=none;endArrow=block;exitX=0.58;exitY=0;entryX=1;entryY=0.81;rounded=0;" edge="1" parent="1" source="J_yqN0D3UHSebhm-e75W-29" target="J_yqN0D3UHSebhm-e75W-13">
          <mxGeometry relative="1" as="geometry">
            <Array as="points">
              <mxPoint x="2187" y="3134" />
              <mxPoint x="2187" y="1905" />
            </Array>
          </mxGeometry>
        </mxCell>
      </root>
    </mxGraphModel>
  </diagram>
</mxfile>
